<svg id="Layer_1" data-name="Layer 1" xmlns="http://www.w3.org/2000/svg" viewBox="0 0 708.66 283.46"><defs><style>.cls-1,.cls-2{fill:#fff;}.cls-2{font-size:82.65px;font-family:Poppins-Bold, Poppins;font-weight:700;letter-spacing:0.05em;}</style></defs><path class="cls-1" d="M86.87,112.5a6,6,0,0,1-8-2.61L68.4,89.26a6,6,0,0,1,2.61-8A14.33,14.33,0,1,0,51.74,75a14.19,14.19,0,0,0,3.82,4.7A6,6,0,0,1,48.13,89a26.23,26.23,0,1,1,33.26-.4l8.09,15.94A6,6,0,0,1,86.87,112.5Z"/><path class="cls-1" d="M56.49,88a6,6,0,0,0-.93-8.36A14.19,14.19,0,0,1,51.74,75,14.32,14.32,0,0,1,72,56.29,20.06,20.06,0,1,0,50.94,90.17,5.92,5.92,0,0,0,56.49,88Z"/><path class="cls-1" d="M79.46,107.14s-.66.63-1.68,1.79c-1.7,8.38-.38,21.3,17.57,32.44a18.21,18.21,0,0,1-1.15-12.45s4-9,23.32-18.48L149.2,91.52s9.9-5.94,10.34-15v-30Z"/><path class="cls-1" d="M78.15,108.42c-3.52,4-11.48,14.06-12.84,26.15-1.76,15.62-1.76,27.5-1.54,41.8,0,0,3.63,5.28,7.92,5.28a28.67,28.67,0,0,0,9.9-2.64l24.31-14.3s5.06-5.17.88-10c0,0-7.91-5.24-11.43-13.33C77.4,130.23,76.45,116.8,78.15,108.42Z"/><path class="cls-1" d="M146.92,188.63s.65-.64,1.68-1.79c1.7-8.38.37-21.3-17.57-32.44a18.33,18.33,0,0,1,1.15,12.45s-4,9-23.32,18.48L77.18,204.25s-9.9,5.94-10.34,15v30Z"/><path class="cls-1" d="M148.23,187.35c3.52-3.95,11.47-14.06,12.84-26.15,1.76-15.62,1.76-27.5,1.54-41.8,0,0-3.63-5.28-7.92-5.28a28.67,28.67,0,0,0-9.9,2.64l-24.31,14.3s-5.06,5.17-.88,10c0,0,7.91,5.24,11.43,13.33C149,165.54,149.93,179,148.23,187.35Z"/><text class="cls-2" transform="translate(201.72 171.35)">Sandangs</text></svg>