<svg id="Layer_1" data-name="Layer 1" xmlns="http://www.w3.org/2000/svg" xmlns:xlink="http://www.w3.org/1999/xlink" viewBox="0 0 120 36"><defs><style>.cls-1{fill:url(#linear-gradient);}.cls-2{fill:url(#linear-gradient-2);}.cls-3{fill:url(#linear-gradient-3);}.cls-4{fill:url(#linear-gradient-4);}.cls-5{fill:url(#linear-gradient-5);}.cls-6{fill:url(#linear-gradient-6);}.cls-7{font-size:15.96px;fill:#1d70b7;font-family:Poppins-Bold, Poppins;font-weight:700;letter-spacing:0.05em;}</style><linearGradient id="linear-gradient" x1="60.34" y1="-5.54" x2="60.34" y2="3.63" gradientTransform="translate(-44.71 37.52) rotate(-26.91)" gradientUnits="userSpaceOnUse"><stop offset="0" stop-color="#11a3de"/><stop offset="1" stop-color="#203a77"/></linearGradient><linearGradient id="linear-gradient-2" x1="61.38" y1="2.1" x2="58.19" y2="-5.16" xlink:href="#linear-gradient"/><linearGradient id="linear-gradient-3" x1="19.71" y1="4.4" x2="11.89" y2="17.94" gradientUnits="userSpaceOnUse"><stop offset="0" stop-color="#0aa5df"/><stop offset="1" stop-color="#223a78"/></linearGradient><linearGradient id="linear-gradient-4" x1="7.95" y1="18.67" x2="14.08" y2="18.67" gradientUnits="userSpaceOnUse"><stop offset="0" stop-color="#0db7e9"/><stop offset="1" stop-color="#223a78"/></linearGradient><linearGradient id="linear-gradient-5" x1="42.98" y1="-250.61" x2="35.17" y2="-237.07" gradientTransform="translate(52.74 -216.89) rotate(180)" xlink:href="#linear-gradient-3"/><linearGradient id="linear-gradient-6" x1="31.23" y1="-236.34" x2="37.36" y2="-236.34" gradientTransform="translate(52.74 -216.89) rotate(180)" xlink:href="#linear-gradient-4"/></defs><path class="cls-1" d="M11.13,14.21a.82.82,0,0,1-1.1-.35L8.6,11A.81.81,0,0,1,9,9.94a2,2,0,1,0-2.64-.86,1.91,1.91,0,0,0,.52.64A.81.81,0,0,1,7,10.86.8.8,0,0,1,5.83,11a3.34,3.34,0,0,1-1-1.18,3.59,3.59,0,1,1,5.51,1.13l1.11,2.18A.81.81,0,0,1,11.13,14.21Z"/><path class="cls-2" d="M7,10.86a.81.81,0,0,0-.13-1.14,1.91,1.91,0,0,1-.52-.64A2,2,0,0,1,9.1,6.52a2.75,2.75,0,1,0-2.89,4.64A.81.81,0,0,0,7,10.86Z"/><path class="cls-3" d="M10.11,13.48l-.23.25c-.23,1.14-.05,2.91,2.41,4.44a2.55,2.55,0,0,1-.16-1.71s.54-1.23,3.19-2.53l4.34-2.59a3,3,0,0,0,1.42-2.05V5.19Z"/><path class="cls-4" d="M9.94,13.66a6.84,6.84,0,0,0-1.76,3.58A41.46,41.46,0,0,0,8,23s.49.72,1.08.72a3.84,3.84,0,0,0,1.36-.36l3.32-2A1,1,0,0,0,13.85,20a4.83,4.83,0,0,1-1.56-1.82C9.83,16.64,9.7,14.8,9.94,13.66Z"/><path class="cls-5" d="M19.35,24.64l.23-.25c.23-1.15.05-2.92-2.41-4.44a2.46,2.46,0,0,1,.16,1.7s-.54,1.24-3.19,2.53L9.8,26.77a3,3,0,0,0-1.41,2.05v4.11Z"/><path class="cls-6" d="M19.53,24.46a7,7,0,0,0,1.76-3.58,41.51,41.51,0,0,0,.21-5.72s-.5-.72-1.09-.72a3.81,3.81,0,0,0-1.35.36l-3.33,1.95a1.05,1.05,0,0,0-.12,1.38A4.74,4.74,0,0,1,17.17,20C19.63,21.47,19.76,23.31,19.53,24.46Z"/><text class="cls-7" transform="translate(26.47 23.77)">Sandangs</text></svg>